<svg width="632" height="632" viewBox="0 0 632 632" fill="none" xmlns="http://www.w3.org/2000/svg">
<rect width="632" height="632" rx="144" fill="url(#paint0_linear_199_121)"/>
<circle cx="216" cy="488" r="18" fill="white"/>
<circle cx="216" cy="532" r="18" fill="white"/>
<rect x="127" y="216" width="36" height="160" rx="18" fill="white"/>
<rect x="75" y="256" width="36" height="80" rx="18" fill="white"/>
<path d="M223.643 114.033C230.211 113.678 236.796 114.232 243.212 115.681C247.164 116.574 251.034 117.801 254.778 119.35L257.09 120.307C261.507 122.135 265.788 124.275 269.901 126.71L487.997 255.883C493.848 259.349 499.242 263.535 504.051 268.344L505.2 269.494C507.317 271.611 509.272 273.884 511.048 276.294C513.964 280.252 516.381 284.555 518.242 289.105L519.96 293.303L520.625 294.856C521.192 296.18 521.635 297.554 521.947 298.96C522.314 300.612 522.5 302.3 522.5 303.992V310.194C522.5 312.093 522.312 313.989 521.939 315.851C521.635 317.373 521.208 318.869 520.663 320.323L519.968 322.176L519.961 322.194L519.953 322.212L516.453 329.712L516.443 329.733L516.431 329.752L512.931 335.752L512.5 335.5L512.911 335.785C509.899 340.135 506.401 344.129 502.486 347.688L502.311 347.847C498.979 350.877 495.368 353.587 491.528 355.94L395.262 414.927L395.235 414.943L395.207 414.956L389.707 417.456L389.682 417.466L389.658 417.475L389.233 417.617C387.477 418.202 385.637 418.5 383.785 418.5H381.428C378.775 418.5 376.211 417.537 374.215 415.791L373.998 415.6C373.416 415.091 372.903 414.507 372.474 413.864C371.513 412.422 371 410.727 371 408.994V403.865C371 402.933 371.066 402.002 371.198 401.08C371.407 399.614 371.781 398.176 372.312 396.794L374.03 392.329L374.608 390.595C375.563 387.732 376.871 384.998 378.503 382.459C379.902 380.283 381.531 378.262 383.361 376.432L383.641 376.152C385.998 373.795 388.642 371.742 391.509 370.042L443.722 339.084L462.206 326.189C464.183 324.81 466.035 323.258 467.74 321.553L469.02 320.273C470.078 319.215 471.029 318.055 471.859 316.81L472.791 315.413C473.292 314.66 473.691 313.844 473.977 312.986C474.323 311.948 474.5 310.862 474.5 309.768V307.75C474.5 305.321 474.108 302.906 473.34 300.601L473.032 299.68L472.327 298.033C471.818 296.846 471.183 295.717 470.432 294.667C469.567 293.455 468.554 292.355 467.418 291.393L465.266 289.574C463.564 288.133 461.745 286.835 459.829 285.694L252.061 161.907C249.908 160.624 247.567 159.683 245.125 159.12C243.343 158.708 241.519 158.5 239.69 158.5H229.155C228.113 158.501 227.077 158.669 226.088 158.999C224.271 159.604 222.674 160.734 221.499 162.246L220.706 163.264C220.187 163.932 219.734 164.649 219.356 165.406L219.289 165.541C218.441 167.236 218 169.105 218 171V383.299C218 387.038 218.498 390.761 219.482 394.369L219 394.5L219.488 394.392L219.706 395.373C220.216 397.67 221.007 399.896 222.059 402.001C222.966 403.815 224.062 405.528 225.329 407.111L227.72 410.1C228.808 411.461 230.037 412.704 231.386 413.807C233.61 415.627 236.135 417.048 238.845 418.004L243.153 419.524C245.425 420.172 247.777 420.5 250.139 420.5H259.365C261.093 420.5 262.82 420.369 264.528 420.106C267.079 419.713 269.578 419.03 271.974 418.072L272.126 418.011C274.543 417.044 276.846 415.813 278.993 414.341L284.711 410.421C290.337 406.563 295.546 402.127 300.251 397.187L303.128 394.165L303.749 393.42C304.975 391.949 306.086 390.386 307.071 388.744L307.5 389L307.109 388.688C308.424 387.044 309.61 385.301 310.654 383.473L313.054 379.27L316.046 372.791L318.54 367.303L319.842 364.266C319.946 364.023 320 363.762 320 363.498C320 362.416 319.118 361.533 318.022 361.516C306.88 361.343 294.532 359.455 285.82 357.734C280.492 356.682 275.62 354.127 271.505 350.618L269.583 348.979C263.676 343.941 259.147 337.483 256.421 330.213L255.243 327.072C252.768 320.472 251.5 313.481 251.5 306.432V305.681C251.5 300.208 252.214 294.756 253.625 289.467L253.8 288.81C254.95 284.496 256.536 280.31 258.532 276.317L259.553 274.276C262.226 268.931 265.789 264.081 270.091 259.933L271.442 258.629C275.589 254.631 280.493 251.499 285.865 249.419C290.849 247.49 296.148 246.501 301.493 246.5H304.07C307.384 246.5 310.687 246.877 313.916 247.622L314.24 247.697C319.502 248.911 324.481 251.127 328.905 254.224C331.181 255.817 333.294 257.632 335.212 259.641L336.978 261.493C340.914 265.615 344.341 270.266 347.126 275.238C348.997 278.58 350.604 282.106 351.892 285.713L354.97 294.333L354.981 294.361L354.987 294.39L358.487 309.89L358.495 309.922L358.498 309.955L360.498 331.455L360.501 331.49L360.499 331.525L360.022 341.297C359.673 348.464 358.643 355.583 356.947 362.555C355.635 367.947 353.929 373.236 351.843 378.378L345.048 395.123C342.319 401.847 338.937 408.288 334.952 414.353C331.253 419.981 327.05 425.262 322.395 430.128L318.361 434.346L318.338 434.371L318.31 434.392L306.31 443.892L306.29 443.909L306.267 443.923L299.828 448C294.107 451.624 288.008 454.613 281.638 456.913L279.355 457.737C275.211 459.233 270.931 460.325 266.576 460.995L266.575 460.994C261.227 461.995 255.77 462.286 250.346 461.858L245.774 461.498C241.544 461.164 237.351 460.46 233.243 459.395L232.963 459.322C228.216 458.091 223.612 456.366 219.226 454.173C214.242 451.681 209.573 448.601 205.318 445.001L204.334 444.168C200.546 440.964 197.118 437.356 194.111 433.41C191.759 430.322 189.673 427.039 187.878 423.598L187.28 422.453C185.456 418.956 183.881 415.333 182.568 411.614L181.528 408.667L181.517 408.636L181.511 408.605L180.011 401.605L180.008 401.588L180.005 401.571L179.5 398.037V398.002L178.514 155.142C178.505 152.689 178.841 150.246 179.512 147.886L179.542 147.757C180.195 144.818 181.206 141.97 182.553 139.277L184.566 135.25L184.584 135.223L185.51 133.834C186.904 131.741 188.463 129.762 190.169 127.915L191.174 126.825C192.832 125.028 194.679 123.414 196.682 122.012C198.054 121.052 199.495 120.194 200.993 119.445L201.847 119.017C204.489 117.696 207.252 116.634 210.097 115.843C213.302 114.953 216.593 114.413 219.914 114.234L223.643 114.033ZM298.118 277C296.976 277.001 295.85 277.266 294.829 277.777C294.435 277.974 294.059 278.207 293.706 278.471L293.347 278.74C292.553 279.336 291.834 280.026 291.205 280.794L288.492 284.11C287.892 284.844 287.345 285.62 286.857 286.433C286.321 287.328 285.856 288.264 285.469 289.233L285.045 290.291L284.268 291.846C284.114 292.154 283.982 292.473 283.873 292.799C283.626 293.541 283.5 294.318 283.5 295.1V304.901C283.5 305.683 283.626 306.46 283.873 307.202C283.982 307.528 284.114 307.847 284.268 308.155L285.053 309.724L286.053 311.724L286.071 311.757L286.879 313.104C287.359 313.905 287.944 314.652 288.604 315.312C288.979 315.687 289.385 316.039 289.809 316.357L290.32 316.741C290.946 317.21 291.643 317.575 292.385 317.823C292.666 317.917 292.941 318.03 293.207 318.163L293.776 318.448C294.463 318.791 295.174 319.086 295.902 319.329L296.781 319.622C297.465 319.85 298.132 320.125 298.776 320.448L298.907 320.513L299.371 320.729C299.84 320.932 300.325 321.097 300.821 321.221C301.563 321.407 302.325 321.5 303.09 321.5H316.997C320.864 321.5 324 318.365 324 314.498C324 314.141 323.973 313.785 323.919 313.433L322.994 307.424L322.988 307.392L321.988 302.892L321.985 302.879L320.985 298.879L320.97 298.83L318.97 293.33L318.947 293.277L316.947 289.277L316.924 289.236L316.01 287.772C314.936 286.054 313.67 284.464 312.238 283.032L308.713 279.506C308.093 278.886 307.336 278.419 306.505 278.142C306.296 278.073 306.093 277.988 305.896 277.89L305.761 277.822C304.68 277.282 303.489 277 302.281 277H298.118Z" fill="white"/>
<defs>
<linearGradient id="paint0_linear_199_121" x1="10" y1="12" x2="619" y2="632" gradientUnits="userSpaceOnUse">
<stop stop-color="#B375FD"/>
<stop offset="1" stop-color="#3BB9FC"/>
</linearGradient>
</defs>
</svg>
